
<?xml-stylesheet type="text/css" href="../css/timeline.css" ?>
<!-- Generator: Adobe Illustrator 25.0.1, SVG Export Plug-In . SVG Version: 6.00 Build 0)  -->
<svg id="timeline-desktop" version="1.1" xmlns="http://www.w3.org/2000/svg" xmlns:xlink="http://www.w3.org/1999/xlink" x="0px" y="0px"
	 viewBox="0 0 550 70" style="enable-background:new 0 0 550 70;" xml:space="preserve">
	<g class="lines">
		<line x1="50" y1="34.15" x2="50" y2="9.15"/>
		<line x1="150" y1="33.95" x2="150" y2="9.15"/>
		<line x1="100" y1="34.65" x2="100" y2="59.15"/>
		<line x1="200" y1="34.15" x2="200" y2="59.15"/>
		<line x1="250" y1="33.65" x2="250" y2="9.15"/>
		<line x1="300" y1="33.65" x2="300" y2="59.15"/>
		<line x1="350" y1="33.65" x2="350" y2="9.15"/>
		<line x1="400" y1="34.65" x2="400" y2="59.15"/>
		<line x1="450" y1="34.15" x2="450" y2="9.15"/>
		<line x1="500" y1="34.65" x2="500" y2="59.15"/>
		<line x1="0" y1="34.15" x2="550" y2="34.15"/>
	</g>
	<g id="events">
		<g class="event">
			<rect class="blue" x="52.0764" y="11.6465 " width="245" height="20" rx="5"/>
			<text transform="matrix(1 0 0 1 117.1244 24.0471)">Havo | Natuur &amp; Gezondheid</text>
		</g>
		<g class="event">
			<rect class="yellow" x="302.0764" y="11.6465 " width="195" height="20" rx="5"/>
			<text transform="matrix(1 0 0 1 360.894 24.0471)">Hbo | Informatica</text>
		</g>
		<g class="event">
			<rect class="yellow" x="52.5" y="36.6465" width="45" height="20" rx="5"/>
			<text x="75" y="46.6465" dominant-baseline="middle" text-anchor="middle">Folders</text>
		</g>
		<g class="event">
			<rect class="red" x="102.5" y="36.6465" width="145" height="20" rx="5"/>
			<text transform="matrix(1 0 0 1 149.5081 49.0471)">Vakkenvuller</text>
		</g>
		<g class="event">
			<rect class="green" x="252.5" y="36.6465" width="245" height="20" rx="5"/>
			<text transform="matrix(1 0 0 1 332.9202 49.0471)">Maaltijd bezorger</text>
		</g>
	</g>
	<g id="years">
		<text transform="matrix(1 0 0 1 40 7.7239)">2013</text>
		<text transform="matrix(1 0 0 1 140 7.7239)">2015</text>
		<text transform="matrix(1 0 0 1 240 7.7244)">2017</text>
		<text transform="matrix(1 0 0 1 340 7.7239)">2019</text>
		<text transform="matrix(1 0 0 1 440 7.7244)">2021</text>
		<text transform="matrix(1 0 0 1 90 68.3699)">2014</text>
		<text transform="matrix(1 0 0 1 190 68.3699)">2016</text>
		<text transform="matrix(1 0 0 1 290 68.3699)">2018</text>
		<text transform="matrix(1 0 0 1 390 68.3704)">2020</text>
		<text transform="matrix(1 0 0 1 490 68.3704)">2022</text>
	</g>
</svg>